<mxfile host="Electron" agent="Mozilla/5.0 (Macintosh; Intel Mac OS X 10_15_7) AppleWebKit/537.36 (KHTML, like Gecko) draw.io/26.1.1 Chrome/132.0.6834.210 Electron/34.3.3 Safari/537.36" version="26.1.1" pages="6">
  <diagram name="t1" id="8jFQAHfubnYCTreY2xb-">
    <mxGraphModel dx="1147" dy="784" grid="1" gridSize="10" guides="1" tooltips="1" connect="1" arrows="1" fold="1" page="1" pageScale="1" pageWidth="1600" pageHeight="900" math="0" shadow="0">
      <root>
        <mxCell id="0" />
        <mxCell id="1" parent="0" />
        <mxCell id="YvlI-vDUudLmRY7K9i0u-4" value="&lt;div style=&quot;background-color: rgb(43, 43, 43); line-height: 16px;&quot;&gt;&lt;div style=&quot;text-align: left; font-family: Menlo, Monaco, &amp;quot;Courier New&amp;quot;, monospace; font-size: 10.8px; white-space: pre;&quot;&gt;&lt;font style=&quot;color: rgb(230, 230, 230);&quot;&gt;Error: Invariant ElectionSafety is violated.&lt;/font&gt;&lt;/div&gt;&lt;div style=&quot;text-align: left; font-family: Menlo, Monaco, &amp;quot;Courier New&amp;quot;, monospace; font-size: 10.8px; white-space: pre;&quot;&gt;&lt;b&gt;&lt;font style=&quot;color: rgb(230, 230, 230);&quot;&gt;State 1: &amp;lt;Initial predicate&amp;gt;&lt;/font&gt;&lt;/b&gt;&lt;/div&gt;&lt;div style=&quot;text-align: left; font-family: Menlo, Monaco, &amp;quot;Courier New&amp;quot;, monospace; font-size: 10.8px; white-space: pre;&quot;&gt;&lt;font style=&quot;color: rgb(230, 230, 230);&quot;&gt;/\ log = (n1 :&amp;gt; &amp;lt;&amp;lt;&amp;gt;&amp;gt; @@ n2 :&amp;gt; &amp;lt;&amp;lt;&amp;gt;&amp;gt; @@ n3 :&amp;gt; &amp;lt;&amp;lt;&amp;gt;&amp;gt;)&lt;/font&gt;&lt;/div&gt;&lt;div style=&quot;text-align: left; font-family: Menlo, Monaco, &amp;quot;Courier New&amp;quot;, monospace; font-size: 10.8px; white-space: pre;&quot;&gt;&lt;font style=&quot;color: rgb(230, 230, 230);&quot;&gt;/\ state = (n1 :&amp;gt; Secondary @@ n2 :&amp;gt; Secondary @@ n3 :&amp;gt; Secondary)&lt;/font&gt;&lt;/div&gt;&lt;div style=&quot;text-align: left; font-family: Menlo, Monaco, &amp;quot;Courier New&amp;quot;, monospace; font-size: 10.8px; white-space: pre;&quot;&gt;&lt;font style=&quot;color: rgb(230, 230, 230);&quot;&gt;/\ immediatelyCommitted = {}&lt;/font&gt;&lt;/div&gt;&lt;div style=&quot;text-align: left; font-family: Menlo, Monaco, &amp;quot;Courier New&amp;quot;, monospace; font-size: 10.8px; white-space: pre;&quot;&gt;&lt;font style=&quot;color: rgb(230, 230, 230);&quot;&gt;/\ config = (n1 :&amp;gt; {n1} @@ n2 :&amp;gt; {n1} @@ n3 :&amp;gt; {n1})&lt;/font&gt;&lt;/div&gt;&lt;div style=&quot;text-align: left; font-family: Menlo, Monaco, &amp;quot;Courier New&amp;quot;, monospace; font-size: 10.8px; white-space: pre;&quot;&gt;&lt;font style=&quot;color: rgb(230, 230, 230);&quot;&gt;/\ currentTerm = (n1 :&amp;gt; 0 @@ n2 :&amp;gt; 0 @@ n3 :&amp;gt; 0)&lt;/font&gt;&lt;/div&gt;&lt;div style=&quot;text-align: left; font-family: Menlo, Monaco, &amp;quot;Courier New&amp;quot;, monospace; font-size: 10.8px; white-space: pre;&quot;&gt;&lt;font style=&quot;color: rgb(230, 230, 230);&quot;&gt;/\ configVersion = (n1 :&amp;gt; 1 @@ n2 :&amp;gt; 1 @@ n3 :&amp;gt; 1)&lt;/font&gt;&lt;/div&gt;&lt;div style=&quot;text-align: left;&quot;&gt;&lt;font style=&quot;color: rgb(230, 230, 230);&quot;&gt;&lt;br&gt;&lt;/font&gt;&lt;/div&gt;&lt;div style=&quot;text-align: left; font-family: Menlo, Monaco, &amp;quot;Courier New&amp;quot;, monospace; font-size: 10.8px; white-space: pre;&quot;&gt;&lt;b&gt;&lt;font style=&quot;color: rgb(230, 230, 230);&quot;&gt;State 2: &amp;lt;BecomeLeader(n1,{n1}) of MongoRaftReconfig&amp;gt;&lt;/font&gt;&lt;/b&gt;&lt;/div&gt;&lt;div style=&quot;text-align: left; font-family: Menlo, Monaco, &amp;quot;Courier New&amp;quot;, monospace; font-size: 10.8px; white-space: pre;&quot;&gt;&lt;font style=&quot;color: rgb(230, 230, 230);&quot;&gt;/\ state = (n1 :&amp;gt; Primary @@ n2 :&amp;gt; Secondary @@ n3 :&amp;gt; Secondary)&lt;/font&gt;&lt;/div&gt;&lt;div style=&quot;text-align: left; font-family: Menlo, Monaco, &amp;quot;Courier New&amp;quot;, monospace; font-size: 10.8px; white-space: pre;&quot;&gt;&lt;font style=&quot;color: rgb(230, 230, 230);&quot;&gt;/\ currentTerm = (n1 :&amp;gt; 1 @@ n2 :&amp;gt; 0 @@ n3 :&amp;gt; 0)&lt;/font&gt;&lt;/div&gt;&lt;div style=&quot;text-align: left;&quot;&gt;&lt;font style=&quot;color: rgb(230, 230, 230);&quot;&gt;&lt;br&gt;&lt;/font&gt;&lt;/div&gt;&lt;div style=&quot;text-align: left; font-family: Menlo, Monaco, &amp;quot;Courier New&amp;quot;, monospace; font-size: 10.8px; white-space: pre;&quot;&gt;&lt;b&gt;&lt;font style=&quot;color: rgb(230, 230, 230);&quot;&gt;State 3: &amp;lt;Reconfig(n1,{n1, n2}) of MongoRaftReconfig&amp;gt;&lt;/font&gt;&lt;/b&gt;&lt;/div&gt;&lt;div style=&quot;text-align: left; font-family: Menlo, Monaco, &amp;quot;Courier New&amp;quot;, monospace; font-size: 10.8px; white-space: pre;&quot;&gt;&lt;font style=&quot;color: rgb(230, 230, 230);&quot;&gt;/\ config = (n1 :&amp;gt; {n1, n2} @@ n2 :&amp;gt; {n1} @@ n3 :&amp;gt; {n1})&lt;/font&gt;&lt;/div&gt;&lt;div style=&quot;text-align: left; font-family: Menlo, Monaco, &amp;quot;Courier New&amp;quot;, monospace; font-size: 10.8px; white-space: pre;&quot;&gt;&lt;font style=&quot;color: rgb(230, 230, 230);&quot;&gt;/\ configVersion = (n1 :&amp;gt; 2 @@ n2 :&amp;gt; 1 @@ n3 :&amp;gt; 1)&lt;/font&gt;&lt;/div&gt;&lt;div style=&quot;text-align: left;&quot;&gt;&lt;font style=&quot;color: rgb(230, 230, 230);&quot;&gt;&lt;br&gt;&lt;/font&gt;&lt;/div&gt;&lt;div style=&quot;text-align: left; font-family: Menlo, Monaco, &amp;quot;Courier New&amp;quot;, monospace; font-size: 10.8px; white-space: pre;&quot;&gt;&lt;b&gt;&lt;font style=&quot;color: rgb(230, 230, 230);&quot;&gt;State 4: &amp;lt;Reconfig(n1,{n1, n2, n3}) of MongoRaftReconfig&amp;gt;&lt;/font&gt;&lt;/b&gt;&lt;/div&gt;&lt;div style=&quot;text-align: left; font-family: Menlo, Monaco, &amp;quot;Courier New&amp;quot;, monospace; font-size: 10.8px; white-space: pre;&quot;&gt;&lt;font style=&quot;color: rgb(230, 230, 230);&quot;&gt;/\ config = (n1 :&amp;gt; {n1, n2, n3} @@ n2 :&amp;gt; {n1} @@ n3 :&amp;gt; {n1})&lt;/font&gt;&lt;/div&gt;&lt;div style=&quot;text-align: left; font-family: Menlo, Monaco, &amp;quot;Courier New&amp;quot;, monospace; font-size: 10.8px; white-space: pre;&quot;&gt;&lt;font style=&quot;color: rgb(230, 230, 230);&quot;&gt;/\ configVersion = (n1 :&amp;gt; 3 @@ n2 :&amp;gt; 1 @@ n3 :&amp;gt; 1)&lt;/font&gt;&lt;/div&gt;&lt;div style=&quot;text-align: left;&quot;&gt;&lt;font style=&quot;color: rgb(230, 230, 230);&quot;&gt;&lt;br&gt;&lt;/font&gt;&lt;/div&gt;&lt;div style=&quot;text-align: left; font-family: Menlo, Monaco, &amp;quot;Courier New&amp;quot;, monospace; font-size: 10.8px; white-space: pre;&quot;&gt;&lt;b&gt;&lt;font style=&quot;color: rgb(230, 230, 230);&quot;&gt;State 5: &amp;lt;SendConfig(n1,n2) of MongoRaftReconfig&amp;gt;&lt;/font&gt;&lt;/b&gt;&lt;/div&gt;&lt;div style=&quot;text-align: left; font-family: Menlo, Monaco, &amp;quot;Courier New&amp;quot;, monospace; font-size: 10.8px; white-space: pre;&quot;&gt;&lt;font style=&quot;color: rgb(230, 230, 230);&quot;&gt;/\ config = (n1 :&amp;gt; {n1, n2, n3} @@ n2 :&amp;gt; {n1, n2, n3} @@ n3 :&amp;gt; {n1})&lt;/font&gt;&lt;/div&gt;&lt;div style=&quot;text-align: left; font-family: Menlo, Monaco, &amp;quot;Courier New&amp;quot;, monospace; font-size: 10.8px; white-space: pre;&quot;&gt;&lt;font style=&quot;color: rgb(230, 230, 230);&quot;&gt;/\ configVersion = (n1 :&amp;gt; 3 @@ n2 :&amp;gt; 3 @@ n3 :&amp;gt; 1)&lt;/font&gt;&lt;/div&gt;&lt;div style=&quot;text-align: left;&quot;&gt;&lt;font style=&quot;color: rgb(230, 230, 230);&quot;&gt;&lt;br&gt;&lt;/font&gt;&lt;/div&gt;&lt;div style=&quot;text-align: left; font-family: Menlo, Monaco, &amp;quot;Courier New&amp;quot;, monospace; font-size: 10.8px; white-space: pre;&quot;&gt;&lt;b&gt;&lt;font style=&quot;color: rgb(230, 230, 230);&quot;&gt;State 6: &amp;lt;BecomeLeader(n2,{n2, n3}) of MongoRaftReconfig&amp;gt;&lt;/font&gt;&lt;/b&gt;&lt;/div&gt;&lt;div style=&quot;text-align: left; font-family: Menlo, Monaco, &amp;quot;Courier New&amp;quot;, monospace; font-size: 10.8px; white-space: pre;&quot;&gt;&lt;font style=&quot;color: rgb(230, 230, 230);&quot;&gt;/\ log = (n1 :&amp;gt; &amp;lt;&amp;lt;&amp;gt;&amp;gt; @@ n2 :&amp;gt; &amp;lt;&amp;lt;&amp;gt;&amp;gt; @@ n3 :&amp;gt; &amp;lt;&amp;lt;&amp;gt;&amp;gt;)&lt;/font&gt;&lt;/div&gt;&lt;div style=&quot;text-align: left; font-family: Menlo, Monaco, &amp;quot;Courier New&amp;quot;, monospace; font-size: 10.8px; white-space: pre;&quot;&gt;&lt;font&gt;&lt;font color=&quot;#e6e6e6&quot;&gt;/\ state = (&lt;/font&gt;&lt;font style=&quot;color: rgb(255, 0, 0);&quot;&gt;n1 :&amp;gt; &lt;font style=&quot;&quot;&gt;Primary&lt;/font&gt;&lt;/font&gt;&lt;span style=&quot;color: rgb(230, 230, 230);&quot;&gt; @@ &lt;/span&gt;&lt;font style=&quot;color: rgb(255, 0, 0);&quot;&gt;n2 :&amp;gt; &lt;font style=&quot;&quot;&gt;Primary&lt;/font&gt;&lt;/font&gt;&lt;font style=&quot;color: rgb(230, 230, 230);&quot;&gt; @@ n3 :&amp;gt; Secondary)&lt;/font&gt;&lt;/font&gt;&lt;/div&gt;&lt;div style=&quot;text-align: left; font-family: Menlo, Monaco, &amp;quot;Courier New&amp;quot;, monospace; font-size: 10.8px; white-space: pre;&quot;&gt;&lt;font style=&quot;color: rgb(230, 230, 230);&quot;&gt;/\ immediatelyCommitted = {}&lt;/font&gt;&lt;/div&gt;&lt;div style=&quot;text-align: left; font-family: Menlo, Monaco, &amp;quot;Courier New&amp;quot;, monospace; font-size: 10.8px; white-space: pre;&quot;&gt;&lt;font style=&quot;color: rgb(230, 230, 230);&quot;&gt;/\ config = (n1 :&amp;gt; {n1, n2, n3} @@ n2 :&amp;gt; {n1, n2, n3} @@ n3 :&amp;gt; {n1})&lt;/font&gt;&lt;/div&gt;&lt;div style=&quot;text-align: left; font-family: Menlo, Monaco, &amp;quot;Courier New&amp;quot;, monospace; font-size: 10.8px; white-space: pre;&quot;&gt;&lt;font style=&quot;color: rgb(230, 230, 230);&quot;&gt;/\ currentTerm = (n1 :&amp;gt; 1 @@ n2 :&amp;gt; 1 @@ n3 :&amp;gt; 1)&lt;/font&gt;&lt;/div&gt;&lt;div style=&quot;text-align: left; font-family: Menlo, Monaco, &amp;quot;Courier New&amp;quot;, monospace; font-size: 10.8px; white-space: pre;&quot;&gt;&lt;font style=&quot;color: rgb(230, 230, 230);&quot;&gt;/\ configVersion = (n1 :&amp;gt; 3 @@ n2 :&amp;gt; 3 @@ n3 :&amp;gt; 1)&lt;/font&gt;&lt;/div&gt;&lt;/div&gt;" style="text;html=1;align=center;verticalAlign=middle;whiteSpace=wrap;rounded=1;strokeColor=#9AC7BF;fillColor=light-dark(#2B2B2B,#282A35);gradientColor=none;arcSize=2;imageHeight=24;strokeWidth=2;" vertex="1" parent="1">
          <mxGeometry x="370" y="210" width="510" height="560" as="geometry" />
        </mxCell>
      </root>
    </mxGraphModel>
  </diagram>
  <diagram name="t3" id="I8Q4x0z7_d7YDWWrgwYp">
    <mxGraphModel dx="1219" dy="833" grid="1" gridSize="10" guides="1" tooltips="1" connect="1" arrows="1" fold="1" page="1" pageScale="1" pageWidth="1600" pageHeight="900" math="0" shadow="0">
      <root>
        <mxCell id="S78iAIIInrne-IOesmyg-0" />
        <mxCell id="S78iAIIInrne-IOesmyg-1" parent="S78iAIIInrne-IOesmyg-0" />
        <mxCell id="S78iAIIInrne-IOesmyg-2" value="&lt;div style=&quot;background-color: rgb(43, 43, 43); line-height: 16px;&quot;&gt;&lt;div style=&quot;text-align: left;&quot;&gt;&lt;font style=&quot;color: rgb(230, 230, 230);&quot; face=&quot;Menlo, Monaco, Courier New, monospace&quot;&gt;&lt;span style=&quot;font-size: 10.8px; white-space: pre;&quot;&gt;Error: Invariant LeaderCompleteness is violated.&lt;br&gt;&lt;b style=&quot;&quot;&gt;State 1: &amp;lt;Initial predicate&amp;gt;&lt;br&gt;&lt;/b&gt;/\ log = (n1 :&amp;gt; &amp;lt;&amp;lt;&amp;gt;&amp;gt; @@ n2 :&amp;gt; &amp;lt;&amp;lt;&amp;gt;&amp;gt; @@ n3 :&amp;gt; &amp;lt;&amp;lt;&amp;gt;&amp;gt;)&lt;br&gt;/\ state = (n1 :&amp;gt; Secondary @@ n2 :&amp;gt; Secondary @@ n3 :&amp;gt; Secondary)&lt;br&gt;/\ immediatelyCommitted = {}&lt;br&gt;/\ config = (n1 :&amp;gt; {n1} @@ n2 :&amp;gt; {n1} @@ n3 :&amp;gt; {n1})&lt;br&gt;/\ currentTerm = (n1 :&amp;gt; 0 @@ n2 :&amp;gt; 0 @@ n3 :&amp;gt; 0)&lt;br&gt;/\ configVersion = (n1 :&amp;gt; 1 @@ n2 :&amp;gt; 1 @@ n3 :&amp;gt; 1)&lt;br&gt;&lt;br&gt;&lt;b style=&quot;&quot;&gt;State 2: &amp;lt;BecomeLeader(n1,{n1}) of MongoRaftReconfig&amp;gt;&lt;br&gt;&lt;/b&gt;/\ state = (n1 :&amp;gt; Primary @@ n2 :&amp;gt; Secondary @@ n3 :&amp;gt; Secondary)&lt;br&gt;/\ currentTerm = (n1 :&amp;gt; 1 @@ n2 :&amp;gt; 0 @@ n3 :&amp;gt; 0)&lt;br&gt;&lt;br&gt;&lt;b style=&quot;&quot;&gt;State 3: &amp;lt;ClientRequest(n1) of MongoRaftReconfig&amp;gt;&lt;br&gt;&lt;/b&gt;/\ log = (n1 :&amp;gt; &amp;lt;&amp;lt;1&amp;gt;&amp;gt; @@ n2 :&amp;gt; &amp;lt;&amp;lt;&amp;gt;&amp;gt; @@ n3 :&amp;gt; &amp;lt;&amp;lt;&amp;gt;&amp;gt;)&lt;br&gt;&lt;br&gt;&lt;b style=&quot;&quot;&gt;State 4: &amp;lt;CommitEntry(n1,{n1}) of MongoRaftReconfig&amp;gt;&lt;br&gt;&lt;/b&gt;/\ immediatelyCommitted = {&amp;lt;&amp;lt;1, 1&amp;gt;&amp;gt;}&lt;br&gt;&lt;br&gt;&lt;b style=&quot;&quot;&gt;State 5: &amp;lt;UpdateTerms(n1,n2) of MongoRaftReconfig&amp;gt;&lt;br&gt;&lt;/b&gt;/\ currentTerm = (n1 :&amp;gt; 1 @@ n2 :&amp;gt; 1 @@ n3 :&amp;gt; 0)&lt;br&gt;&lt;br&gt;&lt;b style=&quot;&quot;&gt;State 6: &amp;lt;Reconfig(n1,{n1, n2}) of MongoRaftReconfig&amp;gt;&lt;br&gt;&lt;/b&gt;/\ config = (n1 :&amp;gt; {n1, n2} @@ n2 :&amp;gt; {n1} @@ n3 :&amp;gt; {n1})&lt;br&gt;/\ configVersion = (n1 :&amp;gt; 2 @@ n2 :&amp;gt; 1 @@ n3 :&amp;gt; 1)&lt;br&gt;&lt;br&gt;&lt;b style=&quot;&quot;&gt;State 7: &amp;lt;SendConfig(n1,n2) of MongoRaftReconfig&amp;gt;&lt;br&gt;&lt;/b&gt;/\ config = (n1 :&amp;gt; {n1, n2} @@ n2 :&amp;gt; {n1, n2} @@ n3 :&amp;gt; {n1})&lt;br&gt;/\ configVersion = (n1 :&amp;gt; 2 @@ n2 :&amp;gt; 2 @@ n3 :&amp;gt; 1)&lt;br&gt;&lt;br&gt;&lt;b style=&quot;&quot;&gt;State 8: &amp;lt;Reconfig(n1,{n1, n2, n3}) of MongoRaftReconfig&amp;gt;&lt;br&gt;&lt;/b&gt;/\ config = (n1 :&amp;gt; {n1, n2, n3} @@ n2 :&amp;gt; {n1, n2} @@ n3 :&amp;gt; {n1})&lt;br&gt;/\ configVersion = (n1 :&amp;gt; 3 @@ n2 :&amp;gt; 2 @@ n3 :&amp;gt; 1)&lt;br&gt;&lt;br&gt;&lt;b style=&quot;&quot;&gt;State 9: &amp;lt;SendConfig(n1,n2) of MongoRaftReconfig&amp;gt;&lt;br&gt;&lt;/b&gt;/\ config = (n1 :&amp;gt; {n1, n2, n3} @@ n2 :&amp;gt; {n1, n2, n3} @@ n3 :&amp;gt; {n1})&lt;br&gt;/\ configVersion = (n1 :&amp;gt; 3 @@ n2 :&amp;gt; 3 @@ n3 :&amp;gt; 1)&lt;br&gt;&lt;br&gt;&lt;b style=&quot;&quot;&gt;State 10: &amp;lt;BecomeLeader(n2,{n2, n3}) of MongoRaftReconfig&amp;gt;&lt;br&gt;&lt;/b&gt;/\ log = (n1 :&amp;gt; &amp;lt;&amp;lt;1&amp;gt;&amp;gt; @@ n2 :&amp;gt; &amp;lt;&amp;lt;&amp;gt;&amp;gt; @@ n3 :&amp;gt; &amp;lt;&amp;lt;&amp;gt;&amp;gt;)&lt;br&gt;/\ state = (n1 :&amp;gt; Primary @@ n2 :&amp;gt; Primary @@ n3 :&amp;gt; Secondary)&lt;br&gt;/\ immediatelyCommitted = {&amp;lt;&amp;lt;1, 1&amp;gt;&amp;gt;}&lt;br&gt;/\ config = (n1 :&amp;gt; {n1, n2, n3} @@ n2 :&amp;gt; {n1, n2, n3} @@ n3 :&amp;gt; {n1})&lt;br&gt;/\ currentTerm = (n1 :&amp;gt; 1 @@ n2 :&amp;gt; 2 @@ n3 :&amp;gt; 2)&lt;br&gt;/\ configVersion = (n1 :&amp;gt; 3 @@ n2 :&amp;gt; 3 @@ n3 :&amp;gt; 1)&lt;br&gt;&lt;/span&gt;&lt;/font&gt;&lt;span style=&quot;color: rgb(169, 183, 198); font-family: Menlo, Monaco, &amp;quot;Courier New&amp;quot;, monospace; font-size: 10.8px; white-space: pre;&quot;&gt;&lt;br&gt;&lt;/span&gt;&lt;/div&gt;&lt;/div&gt;" style="text;html=1;align=center;verticalAlign=middle;whiteSpace=wrap;rounded=1;strokeColor=#9AC7BF;fillColor=light-dark(#2B2B2B,#282A35);gradientColor=none;arcSize=2;strokeWidth=2;" vertex="1" parent="S78iAIIInrne-IOesmyg-1">
          <mxGeometry x="410" y="55" width="510" height="790" as="geometry" />
        </mxCell>
      </root>
    </mxGraphModel>
  </diagram>
  <diagram name="t4" id="Dw2xp2wHiNmwODTYANPz">
    <mxGraphModel dx="2167" dy="2380" grid="1" gridSize="10" guides="1" tooltips="1" connect="1" arrows="1" fold="1" page="1" pageScale="1" pageWidth="1600" pageHeight="900" math="0" shadow="0">
      <root>
        <mxCell id="6cvMPJdQGqWW_6ucDWrY-0" />
        <mxCell id="6cvMPJdQGqWW_6ucDWrY-1" parent="6cvMPJdQGqWW_6ucDWrY-0" />
        <mxCell id="6cvMPJdQGqWW_6ucDWrY-2" value="&lt;div style=&quot;background-color: rgb(43, 43, 43); line-height: 16px;&quot;&gt;&lt;div style=&quot;text-align: left;&quot;&gt;&lt;font style=&quot;color: rgb(230, 230, 230);&quot; face=&quot;Menlo, Monaco, Courier New, monospace&quot;&gt;&lt;span style=&quot;font-size: 10.8px; white-space: pre;&quot;&gt;Error: Invariant ElectionSafety is violated.&lt;br&gt;&lt;b&gt;State 1: &amp;lt;Initial predicate&amp;gt;&lt;br&gt;&lt;/b&gt;/\ log = (n1 :&amp;gt; &amp;lt;&amp;lt;&amp;gt;&amp;gt; @@ n2 :&amp;gt; &amp;lt;&amp;lt;&amp;gt;&amp;gt; @@ n3 :&amp;gt; &amp;lt;&amp;lt;&amp;gt;&amp;gt; @@ n4 :&amp;gt; &amp;lt;&amp;lt;&amp;gt;&amp;gt;)&lt;br&gt;/\ state = (n1 :&amp;gt; Secondary @@ n2 :&amp;gt; Secondary @@ n3 :&amp;gt; Secondary @@ n4 :&amp;gt; Secondary)&lt;br&gt;/\ immediatelyCommitted = {}&lt;br&gt;/\ config = ( n1 :&amp;gt; {n1, n2, n3, n4} @@&lt;br&gt;  n2 :&amp;gt; {n1, n2, n3, n4} @@&lt;br&gt;  n3 :&amp;gt; {n1, n2, n3, n4} @@&lt;br&gt;  n4 :&amp;gt; {n1, n2, n3, n4} )&lt;br&gt;/\ currentTerm = (n1 :&amp;gt; 0 @@ n2 :&amp;gt; 0 @@ n3 :&amp;gt; 0 @@ n4 :&amp;gt; 0)&lt;br&gt;/\ configVersion = (n1 :&amp;gt; 1 @@ n2 :&amp;gt; 1 @@ n3 :&amp;gt; 1 @@ n4 :&amp;gt; 1)&lt;br&gt;&lt;br&gt;&lt;b&gt;State 2: &amp;lt;BecomeLeader(n1,{n1, n2, n3}) of MongoRaftReconfig&amp;gt;&lt;br&gt;&lt;/b&gt;/\ state = (n1 :&amp;gt; Primary @@ n2 :&amp;gt; Secondary @@ n3 :&amp;gt; Secondary @@ n4 :&amp;gt; Secondary)&lt;br&gt;/\ currentTerm = (n1 :&amp;gt; 1 @@ n2 :&amp;gt; 1 @@ n3 :&amp;gt; 1 @@ n4 :&amp;gt; 0)&lt;br&gt;&lt;br&gt;&lt;b&gt;State 3: &amp;lt;Reconfig(n1,{n1, n2, n3}) of MongoRaftReconfig&amp;gt;&lt;br&gt;&lt;/b&gt;/\ config = ( n1 :&amp;gt; {n1, n2, n3} @@&lt;br&gt;  n2 :&amp;gt; {n1, n2, n3, n4} @@&lt;br&gt;  n3 :&amp;gt; {n1, n2, n3, n4} @@&lt;br&gt;  n4 :&amp;gt; {n1, n2, n3, n4} )&lt;br&gt;/\ configVersion = (n1 :&amp;gt; 2 @@ n2 :&amp;gt; 1 @@ n3 :&amp;gt; 1 @@ n4 :&amp;gt; 1)&lt;br&gt;&lt;br&gt;&lt;b&gt;State 4: &amp;lt;BecomeLeader(n2,{n2, n3, n4}) of MongoRaftReconfig&amp;gt;&lt;br&gt;&lt;/b&gt;/\ state = (n1 :&amp;gt; Primary @@ n2 :&amp;gt; Primary @@ n3 :&amp;gt; Secondary @@ n4 :&amp;gt; Secondary)&lt;br&gt;/\ currentTerm = (n1 :&amp;gt; 1 @@ n2 :&amp;gt; 2 @@ n3 :&amp;gt; 2 @@ n4 :&amp;gt; 2)&lt;br&gt;&lt;br&gt;&lt;b&gt;State 5: &amp;lt;UpdateTerms(n2,n1) of MongoRaftReconfig&amp;gt;&lt;br&gt;&lt;/b&gt;/\ state = (n1 :&amp;gt; Secondary @@ n2 :&amp;gt; Primary @@ n3 :&amp;gt; Secondary @@ n4 :&amp;gt; Secondary)&lt;br&gt;/\ currentTerm = (n1 :&amp;gt; 2 @@ n2 :&amp;gt; 2 @@ n3 :&amp;gt; 2 @@ n4 :&amp;gt; 2)&lt;br&gt;&lt;br&gt;&lt;b&gt;State 6: &amp;lt;Reconfig(n2,{n1, n2, n4}) of MongoRaftReconfig&amp;gt;&lt;br&gt;&lt;/b&gt;/\ config = ( n1 :&amp;gt; {n1, n2, n3} @@&lt;br&gt;  n2 :&amp;gt; {n1, n2, n4} @@&lt;br&gt;  n3 :&amp;gt; {n1, n2, n3, n4} @@&lt;br&gt;  n4 :&amp;gt; {n1, n2, n3, n4} )&lt;br&gt;/\ configVersion = (n1 :&amp;gt; 2 @@ n2 :&amp;gt; 2 @@ n3 :&amp;gt; 1 @@ n4 :&amp;gt; 1)&lt;br&gt;&lt;br&gt;&lt;b&gt;State 7: &amp;lt;BecomeLeader(n1,{n1, n3}) of MongoRaftReconfig&amp;gt;&lt;br&gt;&lt;/b&gt;/\ state = (n1 :&amp;gt; Primary @@ n2 :&amp;gt; Primary @@ n3 :&amp;gt; Secondary @@ n4 :&amp;gt; Secondary)&lt;br&gt;/\ config = ( n1 :&amp;gt; {n1, n2, n3} @@&lt;br&gt;  n2 :&amp;gt; {n1, n2, n4} @@&lt;br&gt;  n3 :&amp;gt; {n1, n2, n3, n4} @@&lt;br&gt;  n4 :&amp;gt; {n1, n2, n3, n4} )&lt;br&gt;/\ currentTerm = (n1 :&amp;gt; 3 @@ n2 :&amp;gt; 2 @@ n3 :&amp;gt; 3 @@ n4 :&amp;gt; 2)&lt;br&gt;/\ configVersion = (n1 :&amp;gt; 2 @@ n2 :&amp;gt; 2 @@ n3 :&amp;gt; 1 @@ n4 :&amp;gt; 1)&lt;br&gt;&lt;br&gt;&lt;b&gt;State 8: &amp;lt;BecomeLeader(n2,{n2, n4}) of MongoRaftReconfig&amp;gt;&lt;br&gt;&lt;/b&gt;/\ log = (n1 :&amp;gt; &amp;lt;&amp;lt;&amp;gt;&amp;gt; @@ n2 :&amp;gt; &amp;lt;&amp;lt;&amp;gt;&amp;gt; @@ n3 :&amp;gt; &amp;lt;&amp;lt;&amp;gt;&amp;gt; @@ n4 :&amp;gt; &amp;lt;&amp;lt;&amp;gt;&amp;gt;)&lt;br&gt;/\ state = (n1 :&amp;gt; Primary @@ n2 :&amp;gt; Primary @@ n3 :&amp;gt; Secondary @@ n4 :&amp;gt; Secondary)&lt;br&gt;/\ immediatelyCommitted = {}&lt;br&gt;/\ config = ( n1 :&amp;gt; {n1, n2, n3} @@&lt;br&gt;  n2 :&amp;gt; {n1, n2, n4} @@&lt;br&gt;  n3 :&amp;gt; {n1, n2, n3, n4} @@&lt;br&gt;  n4 :&amp;gt; {n1, n2, n3, n4} )&lt;br&gt;/\ currentTerm = (n1 :&amp;gt; 3 @@ n2 :&amp;gt; 3 @@ n3 :&amp;gt; 3 @@ n4 :&amp;gt; 3)&lt;br&gt;/\ configVersion = (n1 :&amp;gt; 2 @@ n2 :&amp;gt; 2 @@ n3 :&amp;gt; 1 @@ n4 :&amp;gt; 1)&lt;br&gt;&lt;/span&gt;&lt;/font&gt;&lt;span style=&quot;color: rgb(169, 183, 198); font-family: Menlo, Monaco, &amp;quot;Courier New&amp;quot;, monospace; font-size: 10.8px; white-space: pre;&quot;&gt;&lt;br&gt;&lt;/span&gt;&lt;/div&gt;&lt;/div&gt;" style="text;html=1;align=center;verticalAlign=middle;whiteSpace=wrap;rounded=1;strokeColor=default;fillColor=light-dark(#2B2B2B,#282A35);gradientColor=none;arcSize=2;" vertex="1" parent="6cvMPJdQGqWW_6ucDWrY-1">
          <mxGeometry x="370" y="-200" width="630" height="1000" as="geometry" />
        </mxCell>
      </root>
    </mxGraphModel>
  </diagram>
  <diagram id="jm3BY3h6ijAE3kAyquTB" name="snippet-1">
    <mxGraphModel dx="975" dy="666" grid="1" gridSize="10" guides="1" tooltips="1" connect="1" arrows="1" fold="1" page="1" pageScale="1" pageWidth="1600" pageHeight="900" math="0" shadow="0">
      <root>
        <mxCell id="0" />
        <mxCell id="1" parent="0" />
        <mxCell id="OaAE8KhbQRWyvmubTUjm-1" value="&lt;b style=&quot;&quot; id=&quot;docs-internal-guid-955c089a-7fff-785c-a062-aca5ab7f73e9&quot;&gt;&lt;font&gt;&lt;p dir=&quot;ltr&quot; style=&quot;font-weight: normal; line-height: 1.38; margin-top: 0pt; margin-bottom: 0pt;&quot;&gt;&lt;span style=&quot;font-size: 8pt; font-family: &amp;quot;Roboto Mono&amp;quot;, monospace; background-color: transparent; font-weight: 400; font-style: normal; font-variant: normal; text-decoration: none; vertical-align: baseline; white-space: pre-wrap;&quot;&gt;&lt;font style=&quot;color: rgb(128, 128, 128);&quot;&gt;\* The set of all quorums in a given set S.&lt;/font&gt;&lt;/span&gt;&lt;/p&gt;&lt;p dir=&quot;ltr&quot; style=&quot;color: rgb(230, 230, 230); line-height: 1.38; margin-top: 0pt; margin-bottom: 0pt;&quot;&gt;&lt;span style=&quot;font-size: 8pt; font-family: &amp;quot;Roboto Mono&amp;quot;, monospace; background-color: transparent; font-style: normal; font-variant: normal; text-decoration: none; vertical-align: baseline; white-space: pre-wrap;&quot;&gt;Quorums(S)&lt;/span&gt;&lt;span style=&quot;font-weight: 400; font-size: 8pt; font-family: &amp;quot;Roboto Mono&amp;quot;, monospace; background-color: transparent; font-style: normal; font-variant: normal; text-decoration: none; vertical-align: baseline; white-space: pre-wrap;&quot;&gt; == {i \in SUBSET(S) : Cardinality(i) * 2 &amp;gt; Cardinality(S)}&lt;/span&gt;&lt;/p&gt;&lt;br&gt;&lt;p dir=&quot;ltr&quot; style=&quot;font-weight: normal; line-height: 1.38; margin-top: 0pt; margin-bottom: 0pt;&quot;&gt;&lt;span style=&quot;font-size: 8pt; font-family: &amp;quot;Roboto Mono&amp;quot;, monospace; background-color: transparent; font-weight: 400; font-style: normal; font-variant: normal; text-decoration: none; vertical-align: baseline; white-space: pre-wrap;&quot;&gt;&lt;font style=&quot;color: rgb(128, 128, 128);&quot;&gt;\* Do all quorums of two sets intersect.&lt;/font&gt;&lt;/span&gt;&lt;/p&gt;&lt;p dir=&quot;ltr&quot; style=&quot;color: rgb(230, 230, 230); line-height: 1.38; margin-top: 0pt; margin-bottom: 0pt;&quot;&gt;&lt;span style=&quot;font-size: 8pt; font-family: &amp;quot;Roboto Mono&amp;quot;, monospace; background-color: transparent; font-style: normal; font-variant: normal; text-decoration: none; vertical-align: baseline; white-space: pre-wrap;&quot;&gt;QuorumsOverlap(si, sj)&lt;/span&gt;&lt;span style=&quot;font-weight: 400; font-size: 8pt; font-family: &amp;quot;Roboto Mono&amp;quot;, monospace; background-color: transparent; font-style: normal; font-variant: normal; text-decoration: none; vertical-align: baseline; white-space: pre-wrap;&quot;&gt; == \A qi \in Quorums(si), qj \in Quorums(sj) : qi \cap qj # {}&lt;/span&gt;&lt;/p&gt;&lt;br&gt;&lt;p dir=&quot;ltr&quot; style=&quot;font-weight: normal; line-height: 1.38; margin-top: 0pt; margin-bottom: 0pt;&quot;&gt;&lt;span style=&quot;font-size: 8pt; font-family: &amp;quot;Roboto Mono&amp;quot;, monospace; background-color: transparent; font-weight: 400; font-style: normal; font-variant: normal; text-decoration: none; vertical-align: baseline; white-space: pre-wrap;&quot;&gt;&lt;font style=&quot;color: rgb(128, 128, 128);&quot;&gt;\* A reconfig to ‘newConfig’ occurs on node i. The node must currently be a primary.&lt;/font&gt;&lt;/span&gt;&lt;/p&gt;&lt;p dir=&quot;ltr&quot; style=&quot;color: rgb(230, 230, 230); line-height: 1.38; margin-top: 0pt; margin-bottom: 0pt;&quot;&gt;&lt;span style=&quot;font-size: 8pt; font-family: &amp;quot;Roboto Mono&amp;quot;, monospace; background-color: transparent; font-style: normal; font-variant: normal; text-decoration: none; vertical-align: baseline; white-space: pre-wrap;&quot;&gt;Reconfig(i, newConfig) ==&lt;/span&gt;&lt;/p&gt;&lt;p dir=&quot;ltr&quot; style=&quot;color: rgb(230, 230, 230); font-weight: normal; line-height: 1.38; margin-top: 0pt; margin-bottom: 0pt;&quot;&gt;&lt;span style=&quot;font-size: 8pt; font-family: &amp;quot;Roboto Mono&amp;quot;, monospace; background-color: transparent; font-weight: 400; font-style: normal; font-variant: normal; text-decoration: none; vertical-align: baseline; white-space: pre-wrap;&quot;&gt;&amp;nbsp;&amp;nbsp;&amp;nbsp;&amp;nbsp;/\ state[i] = Primary&lt;/span&gt;&lt;/p&gt;&lt;p dir=&quot;ltr&quot; style=&quot;color: rgb(230, 230, 230); font-weight: normal; line-height: 1.38; margin-top: 0pt; margin-bottom: 0pt;&quot;&gt;&lt;span style=&quot;font-size: 8pt; font-family: &amp;quot;Roboto Mono&amp;quot;, monospace; background-color: transparent; font-weight: 400; font-style: normal; font-variant: normal; text-decoration: none; vertical-align: baseline; white-space: pre-wrap;&quot;&gt;&amp;nbsp;&amp;nbsp;&amp;nbsp;&amp;nbsp;/\ i \in newConfig&lt;/span&gt;&lt;/p&gt;&lt;p dir=&quot;ltr&quot; style=&quot;font-weight: normal; line-height: 1.38; margin-top: 0pt; margin-bottom: 0pt;&quot;&gt;&lt;span style=&quot;color: rgb(230, 230, 230); font-size: 8pt; font-family: &amp;quot;Roboto Mono&amp;quot;, monospace; background-color: transparent; font-weight: 400; font-style: normal; font-variant: normal; text-decoration: none; vertical-align: baseline; white-space: pre-wrap;&quot;&gt;&amp;nbsp;&amp;nbsp;&amp;nbsp;&amp;nbsp;&lt;/span&gt;&lt;span style=&quot;font-size: 8pt; font-family: &amp;quot;Roboto Mono&amp;quot;, monospace; font-weight: 400; font-style: normal; font-variant: normal; text-decoration: none; vertical-align: baseline; white-space: pre-wrap; background-color: light-dark(rgb(43, 43, 43), rgb(40, 42, 53));&quot;&gt;&lt;font style=&quot;color: rgb(0, 204, 0);&quot;&gt;/\ QuorumsOverlap(config[i], newConfig)&lt;/font&gt;&lt;/span&gt;&lt;/p&gt;&lt;p dir=&quot;ltr&quot; style=&quot;color: rgb(230, 230, 230); font-weight: normal; line-height: 1.38; margin-top: 0pt; margin-bottom: 0pt;&quot;&gt;&lt;span style=&quot;font-size: 8pt; font-family: &amp;quot;Roboto Mono&amp;quot;, monospace; background-color: transparent; font-weight: 400; font-style: normal; font-variant: normal; text-decoration: none; vertical-align: baseline; white-space: pre-wrap;&quot;&gt;&amp;nbsp;&amp;nbsp;&amp;nbsp;&amp;nbsp;/\ configVersion&#39; = [configVersion EXCEPT ![i] = configVersion[i] + 1]&lt;/span&gt;&lt;/p&gt;&lt;p dir=&quot;ltr&quot; style=&quot;color: rgb(230, 230, 230); font-weight: normal; line-height: 1.38; margin-top: 0pt; margin-bottom: 0pt;&quot;&gt;&lt;span style=&quot;font-size: 8pt; font-family: &amp;quot;Roboto Mono&amp;quot;, monospace; background-color: transparent; font-weight: 400; font-style: normal; font-variant: normal; text-decoration: none; vertical-align: baseline; white-space: pre-wrap;&quot;&gt;&amp;nbsp;&amp;nbsp;&amp;nbsp;&amp;nbsp;/\ config&#39; = [config EXCEPT ![i] = newConfig]&lt;/span&gt;&lt;/p&gt;&lt;p dir=&quot;ltr&quot; style=&quot;color: rgb(230, 230, 230); font-weight: normal; line-height: 1.38; margin-top: 0pt; margin-bottom: 0pt;&quot;&gt;&lt;span style=&quot;font-size: 8pt; font-family: &amp;quot;Roboto Mono&amp;quot;, monospace; background-color: transparent; font-weight: 400; font-style: normal; font-variant: normal; text-decoration: none; vertical-align: baseline; white-space: pre-wrap;&quot;&gt;&amp;nbsp;&amp;nbsp;&amp;nbsp;&amp;nbsp;/\ UNCHANGED &amp;lt;&amp;lt;currentTerm, state&amp;gt;&amp;gt;&lt;/span&gt;&lt;/p&gt;&lt;/font&gt;&lt;/b&gt;" style="text;whiteSpace=wrap;html=1;fillColor=light-dark(#2B2B2B,#282A35);perimeterSpacing=0;strokeColor=#9AC7BF;strokeWidth=2;rounded=1;arcSize=2;spacingLeft=0;spacing=15;" vertex="1" parent="1">
          <mxGeometry x="160" y="240" width="600" height="270" as="geometry" />
        </mxCell>
      </root>
    </mxGraphModel>
  </diagram>
  <diagram name="snippet-2" id="sBdfkW78Seg2GSQwLiOp">
    <mxGraphModel dx="975" dy="666" grid="1" gridSize="10" guides="1" tooltips="1" connect="1" arrows="1" fold="1" page="1" pageScale="1" pageWidth="1600" pageHeight="900" math="0" shadow="0">
      <root>
        <mxCell id="emswD_iwEAi1JWjyzHRn-0" />
        <mxCell id="emswD_iwEAi1JWjyzHRn-1" parent="emswD_iwEAi1JWjyzHRn-0" />
        <mxCell id="emswD_iwEAi1JWjyzHRn-2" value="&lt;b style=&quot;&quot; id=&quot;docs-internal-guid-955c089a-7fff-785c-a062-aca5ab7f73e9&quot;&gt;&lt;font&gt;&lt;p style=&quot;line-height:1.38;margin-top:0pt;margin-bottom:0pt;&quot; dir=&quot;ltr&quot;&gt;&lt;span style=&quot;font-size:8pt;font-family:&#39;Roboto Mono&#39;,monospace;color:#999999;background-color:transparent;font-weight:400;font-style:normal;font-variant:normal;text-decoration:none;vertical-align:baseline;white-space:pre;white-space:pre-wrap;&quot;&gt;\* A quorum of servers in the config of server i have the term of i.&lt;/span&gt;&lt;/p&gt;&lt;p style=&quot;line-height:1.38;margin-top:0pt;margin-bottom:0pt;&quot; dir=&quot;ltr&quot;&gt;&lt;span style=&quot;font-size: 8pt; font-family: &amp;quot;Roboto Mono&amp;quot;, monospace; background-color: transparent; font-style: normal; font-variant: normal; text-decoration: none; vertical-align: baseline; white-space: pre-wrap;&quot;&gt;&lt;font style=&quot;color: rgb(230, 230, 230);&quot;&gt;TermQuorumCheck(i)&lt;span style=&quot;font-weight: 400;&quot;&gt; ==&lt;/span&gt;&lt;/font&gt;&lt;/span&gt;&lt;/p&gt;&lt;p style=&quot;line-height:1.38;margin-top:0pt;margin-bottom:0pt;&quot; dir=&quot;ltr&quot;&gt;&lt;span style=&quot;font-size: 8pt; font-family: &amp;quot;Roboto Mono&amp;quot;, monospace; background-color: transparent; font-weight: 400; font-style: normal; font-variant: normal; text-decoration: none; vertical-align: baseline; white-space: pre-wrap; color: rgb(0, 0, 0);&quot;&gt;&lt;font style=&quot;color: rgb(230, 230, 230);&quot;&gt;&amp;nbsp;&amp;nbsp;&amp;nbsp;&amp;nbsp;\E Q \in Quorums(config[i]) :&amp;nbsp;&lt;/font&gt;&lt;/span&gt;&lt;/p&gt;&lt;p style=&quot;line-height:1.38;margin-top:0pt;margin-bottom:0pt;&quot; dir=&quot;ltr&quot;&gt;&lt;span style=&quot;font-size: 8pt; font-family: &amp;quot;Roboto Mono&amp;quot;, monospace; background-color: transparent; font-weight: 400; font-style: normal; font-variant: normal; text-decoration: none; vertical-align: baseline; white-space: pre-wrap; color: rgb(0, 0, 0);&quot;&gt;&lt;font style=&quot;color: rgb(230, 230, 230);&quot;&gt;&amp;nbsp;&amp;nbsp;&amp;nbsp;&amp;nbsp;\A t \in Q :&amp;nbsp;&lt;/font&gt;&lt;/span&gt;&lt;/p&gt;&lt;p style=&quot;line-height:1.38;margin-top:0pt;margin-bottom:0pt;&quot; dir=&quot;ltr&quot;&gt;&lt;span style=&quot;font-size: 8pt; font-family: &amp;quot;Roboto Mono&amp;quot;, monospace; background-color: transparent; font-weight: 400; font-style: normal; font-variant: normal; text-decoration: none; vertical-align: baseline; white-space: pre-wrap; color: rgb(0, 0, 0);&quot;&gt;&lt;font style=&quot;color: rgb(230, 230, 230);&quot;&gt;&amp;nbsp;&amp;nbsp;&amp;nbsp;&amp;nbsp;&amp;nbsp;&amp;nbsp;&amp;nbsp;&amp;nbsp;currentTerm[t] = currentTerm[i]&lt;/font&gt;&lt;/span&gt;&lt;/p&gt;&lt;p dir=&quot;ltr&quot; style=&quot;font-weight: normal; line-height: 1.38; margin-top: 0pt; margin-bottom: 0pt;&quot;&gt;&lt;b id=&quot;docs-internal-guid-1c56d531-7fff-ef8d-8167-d820a9975c38&quot; style=&quot;font-weight:normal;&quot;&gt;&lt;br&gt;&lt;/b&gt;&lt;/p&gt;&lt;p style=&quot;line-height:1.38;margin-top:0pt;margin-bottom:0pt;&quot; dir=&quot;ltr&quot;&gt;&lt;span style=&quot;font-size:8pt;font-family:&#39;Roboto Mono&#39;,monospace;color:#999999;background-color:transparent;font-weight:400;font-style:normal;font-variant:normal;text-decoration:none;vertical-align:baseline;white-space:pre;white-space:pre-wrap;&quot;&gt;\* A quorum of servers in the config of server i have i&#39;s config.&lt;/span&gt;&lt;/p&gt;&lt;p style=&quot;line-height:1.38;margin-top:0pt;margin-bottom:0pt;&quot; dir=&quot;ltr&quot;&gt;&lt;span style=&quot;font-size: 8pt; font-family: &amp;quot;Roboto Mono&amp;quot;, monospace; background-color: transparent; font-style: normal; font-variant: normal; text-decoration: none; vertical-align: baseline; white-space: pre-wrap;&quot;&gt;&lt;font style=&quot;color: rgb(230, 230, 230);&quot;&gt;ConfigQuorumCheck(i)&lt;span style=&quot;font-weight: 400;&quot;&gt; ==&lt;/span&gt;&lt;/font&gt;&lt;/span&gt;&lt;/p&gt;&lt;p style=&quot;line-height:1.38;margin-top:0pt;margin-bottom:0pt;&quot; dir=&quot;ltr&quot;&gt;&lt;span style=&quot;font-size: 8pt; font-family: &amp;quot;Roboto Mono&amp;quot;, monospace; background-color: transparent; font-weight: 400; font-style: normal; font-variant: normal; text-decoration: none; vertical-align: baseline; white-space: pre-wrap; color: rgb(0, 0, 0);&quot;&gt;&lt;font style=&quot;color: rgb(230, 230, 230);&quot;&gt;&amp;nbsp;&amp;nbsp;&amp;nbsp;&amp;nbsp;\E Q \in Quorums(config[i]) :&amp;nbsp;&lt;/font&gt;&lt;/span&gt;&lt;/p&gt;&lt;p style=&quot;line-height:1.38;margin-top:0pt;margin-bottom:0pt;&quot; dir=&quot;ltr&quot;&gt;&lt;span style=&quot;font-size: 8pt; font-family: &amp;quot;Roboto Mono&amp;quot;, monospace; background-color: transparent; font-weight: 400; font-style: normal; font-variant: normal; text-decoration: none; vertical-align: baseline; white-space: pre-wrap; color: rgb(0, 0, 0);&quot;&gt;&lt;font style=&quot;color: rgb(230, 230, 230);&quot;&gt;&amp;nbsp;&amp;nbsp;&amp;nbsp;&amp;nbsp;\A t \in Q :&lt;/font&gt;&lt;/span&gt;&lt;/p&gt;&lt;p style=&quot;line-height:1.38;margin-top:0pt;margin-bottom:0pt;&quot; dir=&quot;ltr&quot;&gt;&lt;span style=&quot;font-size: 8pt; font-family: &amp;quot;Roboto Mono&amp;quot;, monospace; background-color: transparent; font-weight: 400; font-style: normal; font-variant: normal; text-decoration: none; vertical-align: baseline; white-space: pre-wrap; color: rgb(0, 0, 0);&quot;&gt;&lt;font style=&quot;color: rgb(230, 230, 230);&quot;&gt;&amp;nbsp;&amp;nbsp;&amp;nbsp;&amp;nbsp;&amp;nbsp;&amp;nbsp;&amp;nbsp;&amp;nbsp;configVersion[t] = configVersion[i]&lt;/font&gt;&lt;/span&gt;&lt;/p&gt;&lt;p dir=&quot;ltr&quot; style=&quot;font-weight: normal; line-height: 1.38; margin-top: 0pt; margin-bottom: 0pt;&quot;&gt;&lt;b style=&quot;font-weight:normal;&quot;&gt;&lt;br&gt;&lt;/b&gt;&lt;/p&gt;&lt;p style=&quot;line-height:1.38;margin-top:0pt;margin-bottom:0pt;&quot; dir=&quot;ltr&quot;&gt;&lt;span style=&quot;font-size:8pt;font-family:&#39;Roboto Mono&#39;,monospace;color:#999999;background-color:transparent;font-weight:400;font-style:normal;font-variant:normal;text-decoration:none;vertical-align:baseline;white-space:pre;white-space:pre-wrap;&quot;&gt;\* A reconfig occurs on node i. The node must currently be a leader.&lt;/span&gt;&lt;/p&gt;&lt;p style=&quot;line-height:1.38;margin-top:0pt;margin-bottom:0pt;&quot; dir=&quot;ltr&quot;&gt;&lt;span style=&quot;font-size: 8pt; font-family: &amp;quot;Roboto Mono&amp;quot;, monospace; background-color: transparent; font-style: normal; font-variant: normal; text-decoration: none; vertical-align: baseline; white-space: pre-wrap;&quot;&gt;&lt;font style=&quot;color: rgb(230, 230, 230);&quot;&gt;Reconfig(i, newConfig)&lt;span style=&quot;font-weight: 400;&quot;&gt; ==&lt;/span&gt;&lt;/font&gt;&lt;/span&gt;&lt;/p&gt;&lt;p style=&quot;line-height:1.38;margin-top:0pt;margin-bottom:0pt;&quot; dir=&quot;ltr&quot;&gt;&lt;span style=&quot;font-size: 8pt; font-family: &amp;quot;Roboto Mono&amp;quot;, monospace; background-color: transparent; font-weight: 400; font-style: normal; font-variant: normal; text-decoration: none; vertical-align: baseline; white-space: pre-wrap; color: rgb(0, 0, 0);&quot;&gt;&lt;font style=&quot;color: rgb(230, 230, 230);&quot;&gt;&amp;nbsp;&amp;nbsp;&amp;nbsp;&amp;nbsp;/\ state[i] = Primary&lt;/font&gt;&lt;/span&gt;&lt;/p&gt;&lt;p style=&quot;line-height:1.38;margin-top:0pt;margin-bottom:0pt;&quot; dir=&quot;ltr&quot;&gt;&lt;span style=&quot;font-size: 8pt; font-family: &amp;quot;Roboto Mono&amp;quot;, monospace; background-color: transparent; font-weight: 400; font-style: normal; font-variant: normal; text-decoration: none; vertical-align: baseline; white-space: pre-wrap; color: rgb(0, 0, 0);&quot;&gt;&lt;font style=&quot;color: rgb(230, 230, 230);&quot;&gt;&amp;nbsp;&amp;nbsp;&amp;nbsp;&amp;nbsp;/\ i \in newConfig&lt;/font&gt;&lt;/span&gt;&lt;/p&gt;&lt;p style=&quot;line-height:1.38;margin-top:0pt;margin-bottom:0pt;&quot; dir=&quot;ltr&quot;&gt;&lt;span style=&quot;font-size: 8pt; font-family: &amp;quot;Roboto Mono&amp;quot;, monospace; background-color: transparent; font-weight: 400; font-style: normal; font-variant: normal; text-decoration: none; vertical-align: baseline; white-space: pre-wrap; color: rgb(0, 0, 0);&quot;&gt;&lt;font style=&quot;color: rgb(230, 230, 230);&quot;&gt;&amp;nbsp;&amp;nbsp;&amp;nbsp;&amp;nbsp;/\ QuorumsOverlap(config[i], newConfig)&lt;/font&gt;&lt;/span&gt;&lt;/p&gt;&lt;p style=&quot;line-height:1.38;margin-top:0pt;margin-bottom:0pt;&quot; dir=&quot;ltr&quot;&gt;&lt;font&gt;&lt;span style=&quot;color: rgb(56, 118, 29); font-size: 8pt; font-family: &amp;quot;Roboto Mono&amp;quot;, monospace; background-color: transparent; font-weight: 700; font-style: normal; font-variant: normal; text-decoration: none; vertical-align: baseline; white-space: pre-wrap;&quot;&gt;&amp;nbsp;&amp;nbsp;&amp;nbsp;&amp;nbsp;&lt;/span&gt;&lt;span style=&quot;font-size: 8pt; font-family: &amp;quot;Roboto Mono&amp;quot;, monospace; font-weight: 400; font-style: normal; font-variant: normal; text-decoration: none; vertical-align: baseline; white-space: pre-wrap; background-color: light-dark(rgb(43, 43, 43), rgb(40, 42, 53));&quot;&gt;&lt;font style=&quot;color: rgb(0, 204, 0);&quot;&gt;/\ ConfigQuorumCheck(i)&lt;/font&gt;&lt;/span&gt;&lt;/font&gt;&lt;/p&gt;&lt;p style=&quot;line-height:1.38;margin-top:0pt;margin-bottom:0pt;&quot; dir=&quot;ltr&quot;&gt;&lt;font&gt;&lt;span style=&quot;color: rgb(56, 118, 29); font-size: 8pt; font-family: &amp;quot;Roboto Mono&amp;quot;, monospace; background-color: transparent; font-weight: 700; font-style: normal; font-variant: normal; text-decoration: none; vertical-align: baseline; white-space: pre-wrap;&quot;&gt;&amp;nbsp;&amp;nbsp;&amp;nbsp;&amp;nbsp;&lt;/span&gt;&lt;span style=&quot;font-size: 8pt; font-family: &amp;quot;Roboto Mono&amp;quot;, monospace; font-weight: 400; font-style: normal; font-variant: normal; text-decoration: none; vertical-align: baseline; white-space: pre-wrap; background-color: light-dark(rgb(43, 43, 43), rgb(40, 42, 53));&quot;&gt;&lt;font style=&quot;color: rgb(0, 204, 0);&quot;&gt;/\ TermQuorumCheck(i)&lt;/font&gt;&lt;/span&gt;&lt;/font&gt;&lt;/p&gt;&lt;p style=&quot;line-height:1.38;margin-top:0pt;margin-bottom:0pt;&quot; dir=&quot;ltr&quot;&gt;&lt;span style=&quot;font-size: 8pt; font-family: &amp;quot;Roboto Mono&amp;quot;, monospace; background-color: transparent; font-weight: 400; font-style: normal; font-variant: normal; text-decoration: none; vertical-align: baseline; white-space: pre-wrap; color: rgb(0, 0, 0);&quot;&gt;&lt;font style=&quot;color: rgb(230, 230, 230);&quot;&gt;&amp;nbsp;&amp;nbsp;&amp;nbsp;&amp;nbsp;/\ configVersion&#39; = [configVersion EXCEPT ![i] = configVersion[i] + 1]&lt;/font&gt;&lt;/span&gt;&lt;/p&gt;&lt;p style=&quot;line-height:1.38;margin-top:0pt;margin-bottom:0pt;&quot; dir=&quot;ltr&quot;&gt;&lt;span style=&quot;font-size: 8pt; font-family: &amp;quot;Roboto Mono&amp;quot;, monospace; background-color: transparent; font-weight: 400; font-style: normal; font-variant: normal; text-decoration: none; vertical-align: baseline; white-space: pre-wrap; color: rgb(0, 0, 0);&quot;&gt;&lt;font style=&quot;color: rgb(230, 230, 230);&quot;&gt;&amp;nbsp;&amp;nbsp;&amp;nbsp;&amp;nbsp;/\ config&#39; = [config EXCEPT ![i] = newConfig]&lt;/font&gt;&lt;/span&gt;&lt;/p&gt;&lt;p dir=&quot;ltr&quot; style=&quot;font-weight: normal; line-height: 1.38; margin-top: 0pt; margin-bottom: 0pt;&quot;&gt;&lt;/p&gt;&lt;p style=&quot;line-height:1.38;margin-top:0pt;margin-bottom:0pt;&quot; dir=&quot;ltr&quot;&gt;&lt;span style=&quot;font-size: 8pt; font-family: &amp;quot;Roboto Mono&amp;quot;, monospace; background-color: transparent; font-weight: 400; font-style: normal; font-variant: normal; text-decoration: none; vertical-align: baseline; white-space: pre-wrap; color: rgb(0, 0, 0);&quot;&gt;&lt;font style=&quot;color: rgb(230, 230, 230);&quot;&gt;&amp;nbsp;&amp;nbsp;&amp;nbsp;&amp;nbsp;/\ UNCHANGED &amp;lt;&amp;lt;currentTerm, state&amp;gt;&amp;gt;&lt;/font&gt;&lt;/span&gt;&lt;/p&gt;&lt;div&gt;&lt;span style=&quot;font-size:8pt;font-family:&#39;Roboto Mono&#39;,monospace;color:#000000;background-color:transparent;font-weight:400;font-style:normal;font-variant:normal;text-decoration:none;vertical-align:baseline;white-space:pre;white-space:pre-wrap;&quot;&gt;&lt;br&gt;&lt;/span&gt;&lt;/div&gt;&lt;/font&gt;&lt;/b&gt;" style="text;whiteSpace=wrap;html=1;fillColor=light-dark(#2B2B2B,#282A35);perimeterSpacing=0;strokeColor=#9AC7BF;strokeWidth=2;rounded=1;arcSize=2;spacingLeft=0;spacing=15;" vertex="1" parent="emswD_iwEAi1JWjyzHRn-1">
          <mxGeometry x="160" y="240" width="600" height="410" as="geometry" />
        </mxCell>
      </root>
    </mxGraphModel>
  </diagram>
  <diagram name="snippet-3" id="S_iPkfZZRhB_bu0P7GiJ">
    <mxGraphModel dx="975" dy="666" grid="1" gridSize="10" guides="1" tooltips="1" connect="1" arrows="1" fold="1" page="1" pageScale="1" pageWidth="1600" pageHeight="900" math="0" shadow="0">
      <root>
        <mxCell id="PZxheYSt70NZlAnJf3qO-0" />
        <mxCell id="PZxheYSt70NZlAnJf3qO-1" parent="PZxheYSt70NZlAnJf3qO-0" />
        <mxCell id="PZxheYSt70NZlAnJf3qO-2" value="&lt;b style=&quot;&quot; id=&quot;docs-internal-guid-955c089a-7fff-785c-a062-aca5ab7f73e9&quot;&gt;&lt;font&gt;&lt;p style=&quot;color: light-dark(rgb(230, 230, 230), rgb(39, 39, 39)); line-height: 1.38; margin-top: 0pt; margin-bottom: 0pt;&quot; dir=&quot;ltr&quot;&gt;&lt;span style=&quot;font-size: 8pt; font-family: &amp;quot;Roboto Mono&amp;quot;, monospace; background-color: transparent; font-weight: 400; font-style: normal; font-variant: normal; text-decoration: none; vertical-align: baseline; white-space: pre-wrap;&quot;&gt;OplogCommitment(s) ==&amp;nbsp;&lt;/span&gt;&lt;/p&gt;&lt;p style=&quot;color: light-dark(rgb(230, 230, 230), rgb(39, 39, 39)); line-height: 1.38; margin-top: 0pt; margin-bottom: 0pt;&quot; dir=&quot;ltr&quot;&gt;&lt;span style=&quot;font-size: 8pt; font-family: &amp;quot;Roboto Mono&amp;quot;, monospace; background-color: transparent; font-weight: 400; font-style: normal; font-variant: normal; text-decoration: none; vertical-align: baseline; white-space: pre-wrap;&quot;&gt;&amp;nbsp;&amp;nbsp;&amp;nbsp;&amp;nbsp;\* The primary committed an entry in its term.&lt;/span&gt;&lt;/p&gt;&lt;p style=&quot;color: light-dark(rgb(230, 230, 230), rgb(39, 39, 39)); line-height: 1.38; margin-top: 0pt; margin-bottom: 0pt;&quot; dir=&quot;ltr&quot;&gt;&lt;span style=&quot;font-size: 8pt; font-family: &amp;quot;Roboto Mono&amp;quot;, monospace; background-color: transparent; font-weight: 400; font-style: normal; font-variant: normal; text-decoration: none; vertical-align: baseline; white-space: pre-wrap;&quot;&gt;&amp;nbsp;&amp;nbsp;&amp;nbsp;&amp;nbsp;/\ \E c \in committed : (c.term = currentTerm[s])&lt;/span&gt;&lt;/p&gt;&lt;p style=&quot;color: light-dark(rgb(230, 230, 230), rgb(39, 39, 39)); line-height: 1.38; margin-top: 0pt; margin-bottom: 0pt;&quot; dir=&quot;ltr&quot;&gt;&lt;span style=&quot;font-size: 8pt; font-family: &amp;quot;Roboto Mono&amp;quot;, monospace; background-color: transparent; font-weight: 400; font-style: normal; font-variant: normal; text-decoration: none; vertical-align: baseline; white-space: pre-wrap;&quot;&gt;&amp;nbsp;&amp;nbsp;&amp;nbsp;&amp;nbsp;\* All entries committed in the primary&#39;s term are committed in its current config.&lt;/span&gt;&lt;/p&gt;&lt;p style=&quot;color: light-dark(rgb(230, 230, 230), rgb(39, 39, 39)); line-height: 1.38; margin-top: 0pt; margin-bottom: 0pt;&quot; dir=&quot;ltr&quot;&gt;&lt;span style=&quot;font-size: 8pt; font-family: &amp;quot;Roboto Mono&amp;quot;, monospace; background-color: transparent; font-weight: 400; font-style: normal; font-variant: normal; text-decoration: none; vertical-align: baseline; white-space: pre-wrap;&quot;&gt;&amp;nbsp;&amp;nbsp;&amp;nbsp;&amp;nbsp;/\ \A c \in committed : (c.term = currentTerm[s]) =&amp;gt; IsCommitted(c.entry[1], s)&lt;/span&gt;&lt;/p&gt;&lt;p style=&quot;color: light-dark(rgb(230, 230, 230), rgb(39, 39, 39)); line-height: 1.38; margin-top: 0pt; margin-bottom: 0pt;&quot; dir=&quot;ltr&quot;&gt;&lt;b id=&quot;docs-internal-guid-878e2a91-7fff-a3c8-2afd-2d5c69914c0f&quot; style=&quot;font-weight:normal;&quot;&gt;&lt;br&gt;&lt;/b&gt;&lt;/p&gt;&lt;p style=&quot;line-height: 1.38; margin-top: 0pt; margin-bottom: 0pt;&quot; dir=&quot;ltr&quot;&gt;&lt;span style=&quot;font-size: 8pt; font-family: &amp;quot;Roboto Mono&amp;quot;, monospace; background-color: transparent; font-weight: 400; font-style: normal; font-variant: normal; text-decoration: none; vertical-align: baseline; white-space: pre-wrap;&quot;&gt;&lt;font style=&quot;color: rgb(128, 128, 128);&quot;&gt;\* A reconfig occurs on node i. The node must currently be a leader.&lt;/font&gt;&lt;/span&gt;&lt;/p&gt;&lt;p style=&quot;color: light-dark(rgb(230, 230, 230), rgb(39, 39, 39)); line-height: 1.38; margin-top: 0pt; margin-bottom: 0pt;&quot; dir=&quot;ltr&quot;&gt;&lt;span style=&quot;font-size: 8pt; font-family: &amp;quot;Roboto Mono&amp;quot;, monospace; background-color: transparent; font-weight: 400; font-style: normal; font-variant: normal; text-decoration: none; vertical-align: baseline; white-space: pre-wrap;&quot;&gt;Reconfig(i, newConfig) ==&lt;/span&gt;&lt;/p&gt;&lt;p style=&quot;color: light-dark(rgb(230, 230, 230), rgb(39, 39, 39)); line-height: 1.38; margin-top: 0pt; margin-bottom: 0pt;&quot; dir=&quot;ltr&quot;&gt;&lt;span style=&quot;font-size: 8pt; font-family: &amp;quot;Roboto Mono&amp;quot;, monospace; background-color: transparent; font-weight: 400; font-style: normal; font-variant: normal; text-decoration: none; vertical-align: baseline; white-space: pre-wrap;&quot;&gt;&amp;nbsp;&amp;nbsp;&amp;nbsp;&amp;nbsp;/\ state[i] = Primary&lt;/span&gt;&lt;/p&gt;&lt;p style=&quot;color: light-dark(rgb(230, 230, 230), rgb(39, 39, 39)); line-height: 1.38; margin-top: 0pt; margin-bottom: 0pt;&quot; dir=&quot;ltr&quot;&gt;&lt;span style=&quot;font-size: 8pt; font-family: &amp;quot;Roboto Mono&amp;quot;, monospace; background-color: transparent; font-weight: 400; font-style: normal; font-variant: normal; text-decoration: none; vertical-align: baseline; white-space: pre-wrap;&quot;&gt;&amp;nbsp;&amp;nbsp;&amp;nbsp;&amp;nbsp;/\ QuorumsOverlap(config[i], newConfig)&lt;/span&gt;&lt;/p&gt;&lt;p style=&quot;color: light-dark(rgb(230, 230, 230), rgb(39, 39, 39)); line-height: 1.38; margin-top: 0pt; margin-bottom: 0pt;&quot; dir=&quot;ltr&quot;&gt;&lt;span style=&quot;font-size: 8pt; font-family: &amp;quot;Roboto Mono&amp;quot;, monospace; background-color: transparent; font-weight: 400; font-style: normal; font-variant: normal; text-decoration: none; vertical-align: baseline; white-space: pre-wrap;&quot;&gt;&amp;nbsp;&amp;nbsp;&amp;nbsp;&amp;nbsp;/\ ConfigQuorumCheck(i)&lt;/span&gt;&lt;/p&gt;&lt;p style=&quot;color: light-dark(rgb(230, 230, 230), rgb(39, 39, 39)); line-height: 1.38; margin-top: 0pt; margin-bottom: 0pt;&quot; dir=&quot;ltr&quot;&gt;&lt;span style=&quot;font-size: 8pt; font-family: &amp;quot;Roboto Mono&amp;quot;, monospace; background-color: transparent; font-weight: 400; font-style: normal; font-variant: normal; text-decoration: none; vertical-align: baseline; white-space: pre-wrap;&quot;&gt;&amp;nbsp;&amp;nbsp;&amp;nbsp;&amp;nbsp;/\ TermQuorumCheck(i)&lt;/span&gt;&lt;/p&gt;&lt;p style=&quot;line-height: 1.38; margin-top: 0pt; margin-bottom: 0pt;&quot; dir=&quot;ltr&quot;&gt;&lt;span style=&quot;font-size: 8pt; font-family: &amp;quot;Roboto Mono&amp;quot;, monospace; background-color: transparent; font-weight: 700; font-style: normal; font-variant: normal; text-decoration: none; vertical-align: baseline; white-space: pre-wrap;&quot;&gt;&amp;nbsp;&amp;nbsp;&amp;nbsp;&amp;nbsp;&lt;/span&gt;&lt;span style=&quot;font-size: 8pt; font-family: &amp;quot;Roboto Mono&amp;quot;, monospace; font-weight: 400; font-style: normal; font-variant: normal; text-decoration: none; vertical-align: baseline; white-space: pre-wrap; background-color: light-dark(rgb(43, 43, 43), rgb(40, 42, 53));&quot;&gt;&lt;font style=&quot;color: light-dark(rgb(0, 204, 0), rgb(39, 39, 39));&quot;&gt;/\ OplogCommitment(i)&lt;/font&gt;&lt;/span&gt;&lt;/p&gt;&lt;p style=&quot;color: light-dark(rgb(230, 230, 230), rgb(39, 39, 39)); line-height: 1.38; margin-top: 0pt; margin-bottom: 0pt;&quot; dir=&quot;ltr&quot;&gt;&lt;span style=&quot;font-size: 8pt; font-family: &amp;quot;Roboto Mono&amp;quot;, monospace; background-color: transparent; font-weight: 400; font-style: normal; font-variant: normal; text-decoration: none; vertical-align: baseline; white-space: pre-wrap;&quot;&gt;&amp;nbsp;&amp;nbsp;&amp;nbsp;&amp;nbsp;/\ i \in newConfig&lt;/span&gt;&lt;/p&gt;&lt;p style=&quot;color: light-dark(rgb(230, 230, 230), rgb(39, 39, 39)); line-height: 1.38; margin-top: 0pt; margin-bottom: 0pt;&quot; dir=&quot;ltr&quot;&gt;&lt;span style=&quot;font-size: 8pt; font-family: &amp;quot;Roboto Mono&amp;quot;, monospace; background-color: transparent; font-weight: 400; font-style: normal; font-variant: normal; text-decoration: none; vertical-align: baseline; white-space: pre-wrap;&quot;&gt;&amp;nbsp;&amp;nbsp;&amp;nbsp;&amp;nbsp;/\ configVersion&#39; = [configVersion EXCEPT ![i] = configVersion[i] + 1]&lt;/span&gt;&lt;/p&gt;&lt;p style=&quot;color: light-dark(rgb(230, 230, 230), rgb(39, 39, 39)); line-height: 1.38; margin-top: 0pt; margin-bottom: 0pt;&quot; dir=&quot;ltr&quot;&gt;&lt;span style=&quot;font-size: 8pt; font-family: &amp;quot;Roboto Mono&amp;quot;, monospace; background-color: transparent; font-weight: 400; font-style: normal; font-variant: normal; text-decoration: none; vertical-align: baseline; white-space: pre-wrap;&quot;&gt;&amp;nbsp;&amp;nbsp;&amp;nbsp;&amp;nbsp;/\ config&#39; = [config EXCEPT ![i] = newConfig]&lt;/span&gt;&lt;/p&gt;&lt;p style=&quot;color: light-dark(rgb(230, 230, 230), rgb(39, 39, 39)); line-height: 1.38; margin-top: 0pt; margin-bottom: 0pt;&quot; dir=&quot;ltr&quot;&gt;&lt;span style=&quot;font-weight:normal;&quot;&gt;&lt;/span&gt;&lt;/p&gt;&lt;p style=&quot;color: light-dark(rgb(230, 230, 230), rgb(39, 39, 39)); line-height: 1.38; margin-top: 0pt; margin-bottom: 0pt;&quot; dir=&quot;ltr&quot;&gt;&lt;span style=&quot;font-size: 8pt; font-family: &amp;quot;Roboto Mono&amp;quot;, monospace; background-color: transparent; font-weight: 400; font-style: normal; font-variant: normal; text-decoration: none; vertical-align: baseline; white-space: pre-wrap;&quot;&gt;&amp;nbsp;&amp;nbsp;&amp;nbsp;&amp;nbsp;/\ UNCHANGED &amp;lt;&amp;lt;currentTerm, state&amp;gt;&amp;gt;&lt;/span&gt;&lt;/p&gt;&lt;/font&gt;&lt;/b&gt;" style="text;whiteSpace=wrap;html=1;fillColor=light-dark(#2B2B2B,#282A35);perimeterSpacing=0;strokeColor=#9AC7BF;strokeWidth=2;rounded=1;arcSize=2;spacingLeft=0;spacing=15;" vertex="1" parent="PZxheYSt70NZlAnJf3qO-1">
          <mxGeometry x="160" y="240" width="600" height="320" as="geometry" />
        </mxCell>
      </root>
    </mxGraphModel>
  </diagram>
</mxfile>
